<svg xmlns="http://www.w3.org/2000/svg" width="14.599" height="18.003" viewBox="0 0 14.599 18.003">
  <g id="Group_7095" data-name="Group 7095" transform="translate(12829.273 -2527.34)">
    <g id="Group_7092" data-name="Group 7092" transform="translate(-12829.273 2527.34)">
      <path id="Path_4723" data-name="Path 4723" d="M57.082,21h-7.2A2.883,2.883,0,0,1,47,18.123V5.881A2.883,2.883,0,0,1,49.881,3h7.2a2.883,2.883,0,0,1,2.881,2.881v5.041a.72.72,0,0,1-1.44,0V5.881a1.442,1.442,0,0,0-1.44-1.44h-7.2a1.442,1.442,0,0,0-1.44,1.44V18.123a1.442,1.442,0,0,0,1.44,1.44h7.2a.72.72,0,1,1,0,1.44" transform="translate(-47 -3)" fill="#fff"/>
      <path id="Path_4724" data-name="Path 4724" d="M57.481,10.44H51.72a.72.72,0,0,1,0-1.44h5.761a.72.72,0,0,1,0,1.44" transform="translate(-48.119 -4.679)" fill="#fff"/>
      <path id="Path_4725" data-name="Path 4725" d="M55.321,13.44h-3.6a.72.72,0,0,1,0-1.44h3.6a.72.72,0,0,1,0,1.44" transform="translate(-48.119 -5.519)" fill="#fff"/>
      <path id="Path_4726" data-name="Path 4726" d="M65.441,19.357a2.357,2.357,0,1,0-3.535,2.03V22.3a1.179,1.179,0,0,0,2.357,0v-.916a2.347,2.347,0,0,0,1.178-2.03" transform="translate(-50.842 -6.918)" fill="#fff"/>
    </g>
  </g>
</svg>
