<?xml version="1.0" encoding="UTF-8"?>
<svg id="Layer_1" data-name="Layer 1" xmlns="http://www.w3.org/2000/svg" viewBox="0 0 746 242">
  <defs>
    <style>
      .cls-1 {
        fill: #818181;
      }

      .cls-2 {
        fill: #0286bd;
      }

      .cls-3 {
        fill: #f16a21;
      }
    </style>
  </defs>
  <g>
    <path class="cls-2" d="m287.28,77.04l-3.16,4.18c.95-1.47,2-2.87,3.16-4.18Z"/>
    <path class="cls-3" d="m344.15,130.87c-3.7-3.7-9.4-4.28-13.92-1.64-5.07,2.97-10.97,4.67-17.27,4.67-18.91,0-34.23-15.33-34.23-34.23,0-6.77,1.96-13.08,5.35-18.39l-25.93,34.42c6.92,23.73,28.84,41.07,54.81,41.07,10.69,0,20.7-2.94,29.26-8.06,6.29-3.76,7.3-12.47,2.12-17.66l-.19-.19Zm-78.79-62.73l4.08-5.41c-1.47,1.72-2.83,3.52-4.08,5.41Z"/>
    <path class="cls-2" d="m344.33,68.3l-.19.19c-3.7,3.7-9.4,4.28-13.92,1.64-5.07-2.97-10.97-4.67-17.27-4.67-10.23,0-19.41,4.48-25.68,11.59-1.17,1.32-2.22,2.73-3.18,4.21l-.02.03-25.93,34.42-18.35,24.35h-.01c-10.33,10.33-24.6,16.72-40.36,16.72h-.2c-.22,0-.43,0-.65-.01-31.15-.45-56.25-25.84-56.25-57.09s25.56-57.09,57.1-57.09c10.7,0,20.7,2.94,29.26,8.06,6.29,3.76,7.3,12.47,2.12,17.66l-.19.19c-3.7,3.7-9.4,4.28-13.91,1.64-5.07-2.97-10.97-4.67-17.27-4.67-18.91,0-34.23,15.32-34.23,34.22s15.32,34.23,34.23,34.23c8.99,0,17.18-3.47,23.29-9.17l.47-.63,42.17-55.97,4.08-5.41c10.47-12.32,26.08-20.14,43.52-20.14h.28c10.59.05,20.5,2.99,28.99,8.06,6.29,3.76,7.29,12.48,2.11,17.66Z"/>
    <path class="cls-2" d="m74.73,42.61c-31.53,0-57.08,25.56-57.08,57.08s25.55,57.08,57.08,57.08,57.07-25.56,57.07-57.08-25.55-57.08-57.07-57.08Zm0,91.29c-18.9,0-34.22-15.31-34.22-34.21s15.32-34.22,34.22-34.22,34.21,15.32,34.21,34.22-15.32,34.21-34.21,34.21Z"/>
    <path class="cls-2" d="m413.93,42.61c-32.2.18-58.08,27.02-56.7,59.56,1.24,29.25,24.91,53.1,54.16,54.53,13.93.68,26.84-3.64,37.08-11.32,0,3.12,1.26,5.94,3.3,7.98,2.05,2.05,4.87,3.31,7.99,3.31h.29c6.23,0,11.29-5.05,11.29-11.29v-44.76c0-31.8-25.61-58.19-57.41-58.01Zm.33,91.29c-18.9,0-34.22-15.31-34.22-34.21s15.32-34.22,34.22-34.22,34.21,15.32,34.21,34.22-15.32,34.21-34.21,34.21Z"/>
    <path class="cls-2" d="m626.59,82.9v62.36c0,6.3-5.11,11.41-11.41,11.41h0c-6.3,0-11.41-5.11-11.41-11.41v-62.63c0-9.4-7.69-17.37-17.08-17.2-9.11.17-16.45,7.61-16.45,16.77v63.06c0,6.3-5.11,11.41-11.41,11.41h0c-6.3,0-11.41-5.11-11.41-11.41v-62.63c0-9.4-7.69-17.38-17.09-17.2s-16.43,7.62-16.43,16.77v63.06c0,6.3-5.11,11.41-11.41,11.41h0c-6.3,0-11.41-5.11-11.41-11.41v-62.36c0-22.02,18.02-40.54,40.04-40.28,10.85.12,20.64,4.61,27.71,11.78,7.08-7.18,16.89-11.66,27.75-11.78,22.01-.23,40.01,18.28,40.01,40.28Z"/>
    <path class="cls-2" d="m692.18,88.97l-.08-.02c-21.13-5.01-23.44-8.33-23.44-14.2v-.3c0-5.9,6.06-10.02,14.73-10.02,5.28,0,10.55,1.22,15.95,3.7.93.43,4.04,2.31,7.35,4.36,5.33,3.3,12.32,1.75,15.74-3.5h0c3.52-5.41,1.9-12.65-3.57-16.06-3.26-2.03-6.28-3.87-7.21-4.32-8.5-4.11-17.71-6.13-27.95-6.13-23.04,0-39.14,13.84-39.14,33.65v.3c0,21.25,13.79,28.74,37.65,34.5,18.85,4.35,22.04,7.75,22.04,13.74v.3c0,6.45-6.54,10.78-16.28,10.78-3.55,0-10.19-1.56-16.14-4.23-4.73-2.12-9.46-4.72-13.36-7.03-5.31-3.14-12.15-1.57-15.51,3.6l-.09.13c-3.48,5.35-1.92,12.5,3.45,15.93,4.01,2.56,8.03,5.08,9.36,5.78,9.86,5.11,20.68,7.78,31.85,7.78,24.8,0,40.82-13.57,40.82-34.57v-.29c0-17.8-10.48-27.61-36.16-33.88Z"/>
  </g>
  <g>
    <path class="cls-1" d="m480.67,204.26c-2.81-2.76-4.22-6.26-4.22-10.49s1.41-7.73,4.22-10.47,6.28-4.12,10.39-4.12c2.98,0,5.64.7,7.97,2.11s4.05,3.44,5.15,6.08h-4.55c-1.71-3.23-4.57-4.84-8.57-4.84-3.12,0-5.69,1.03-7.72,3.08-2.03,2.06-3.04,4.78-3.04,8.17s1.01,6.13,3.04,8.2,4.6,3.1,7.72,3.1c1.9,0,3.6-.42,5.09-1.26,1.49-.84,2.65-2.05,3.48-3.62h4.55c-1.1,2.65-2.82,4.68-5.15,6.08s-4.99,2.11-7.97,2.11c-4.11,0-7.57-1.38-10.39-4.14Z"/>
    <path class="cls-1" d="m510.7,205.29c-2.08-2.15-3.12-4.98-3.12-8.49s1.09-6.34,3.27-8.51c2.18-2.17,4.91-3.25,8.2-3.25s6.02,1.08,8.2,3.25c2.18,2.17,3.27,5,3.27,8.49s-1.14,6.32-3.41,8.48c-2.28,2.17-5.06,3.25-8.34,3.25s-5.97-1.08-8.05-3.23Zm8.05.12c2.12,0,3.97-.77,5.53-2.3,1.56-1.53,2.34-3.65,2.34-6.35s-.74-4.82-2.23-6.33-3.3-2.28-5.44-2.28-3.93.76-5.36,2.28c-1.44,1.52-2.15,3.64-2.15,6.35s.69,4.84,2.07,6.35c1.38,1.52,3.13,2.28,5.26,2.28Z"/>
    <path class="cls-1" d="m537.96,185.42v3.68c1.54-2.7,4.01-4.06,7.41-4.06,2.51,0,4.61.83,6.29,2.5,1.68,1.67,2.52,4.05,2.52,7.14v13.45h-3.72v-12.83c0-2.29-.55-4.03-1.66-5.21s-2.63-1.78-4.57-1.78-3.48.59-4.59,1.78c-1.12,1.19-1.68,2.92-1.68,5.21v12.83h-3.77v-22.72h3.77Z"/>
    <path class="cls-1" d="m562.91,185.42v3.68c1.54-2.7,4.01-4.06,7.41-4.06,2.51,0,4.61.83,6.29,2.5,1.68,1.67,2.52,4.05,2.52,7.14v13.45h-3.72v-12.83c0-2.29-.55-4.03-1.66-5.21s-2.63-1.78-4.57-1.78-3.48.59-4.59,1.78c-1.12,1.19-1.68,2.92-1.68,5.21v12.83h-3.77v-22.72h3.77Z"/>
    <path class="cls-1" d="m593.62,208.52c-3.26,0-5.91-1.08-7.95-3.23-2.04-2.15-3.06-4.99-3.06-8.53s1.04-6.37,3.1-8.51,4.75-3.21,8.05-3.21,5.95,1.01,7.95,3.04c2,2.03,3,4.62,3,7.76,0,.8-.06,1.55-.17,2.24h-18.09c.11,2.26.82,4.05,2.13,5.36,1.31,1.31,2.99,1.97,5.03,1.97,1.54,0,2.85-.34,3.91-1.04,1.06-.69,1.84-1.6,2.34-2.73h4.06c-.72,1.99-1.95,3.63-3.71,4.92-1.75,1.3-3.95,1.95-6.6,1.95Zm5.09-18.4c-1.35-1.31-3.03-1.97-5.03-1.97s-3.66.64-4.99,1.92c-1.32,1.28-2.06,3.04-2.19,5.28h14.28c-.03-2.18-.72-3.92-2.07-5.24Z"/>
    <path class="cls-1" d="m609.93,205.29c-2.04-2.15-3.06-4.99-3.06-8.51s1.02-6.35,3.06-8.51,4.69-3.23,7.95-3.23c2.73,0,4.96.63,6.68,1.9s2.93,3.08,3.62,5.42h-4.06c-.44-1.32-1.2-2.36-2.28-3.1s-2.4-1.12-3.97-1.12c-2.15,0-3.88.75-5.19,2.26-1.31,1.5-1.97,3.63-1.97,6.37s.65,4.87,1.97,6.37c1.31,1.5,3.04,2.26,5.19,2.26,3.23,0,5.31-1.41,6.25-4.22h4.06c-.69,2.23-1.91,4.01-3.66,5.34-1.75,1.32-3.97,1.99-6.64,1.99-3.26,0-5.91-1.08-7.95-3.23Z"/>
    <path class="cls-1" d="m639.61,205.09h3.1v3.06h-3.81c-3.95,0-5.92-1.95-5.92-5.84v-13.82h-2.94v-3.06h2.94v-5.63h3.81v5.63h5.88v3.06h-5.88v13.82c0,1.02.21,1.74.62,2.15.41.41,1.15.62,2.19.62Z"/>
    <path class="cls-1" d="m659.58,179.32c1.78-1.37,4.06-2.05,6.83-2.05s4.97.73,6.58,2.19c1.61,1.46,2.42,3.33,2.42,5.59,0,1.63-.46,3.06-1.37,4.28-.91,1.23-2.08,2.06-3.52,2.5v.21c1.68.47,3.01,1.38,3.97,2.73.97,1.35,1.45,3.16,1.45,5.42s-.83,4.18-2.5,5.75c-1.67,1.57-3.97,2.36-6.91,2.36s-5.35-.75-7.22-2.24c-1.88-1.49-2.91-3.6-3.1-6.33h3.56c.14,1.57.79,2.86,1.97,3.87,1.17,1.01,2.73,1.51,4.68,1.51s3.44-.52,4.47-1.55c1.03-1.04,1.55-2.37,1.55-3.99,0-2.18-.69-3.73-2.07-4.64-1.38-.91-3.49-1.37-6.33-1.37h-.99v-3.15h1.03c5.19-.05,7.78-1.72,7.78-5.01,0-1.52-.49-2.72-1.47-3.6-.98-.88-2.35-1.32-4.12-1.32s-3.16.41-4.18,1.22c-1.02.81-1.64,1.9-1.86,3.25h-3.64c.22-2.4,1.22-4.28,3-5.65Z"/>
    <path class="cls-1" d="m691.3,180.42c-2.48,0-4.32.91-5.51,2.73s-1.82,4.91-1.9,9.27c.75-1.35,1.85-2.41,3.31-3.17,1.46-.76,3.09-1.14,4.88-1.14,2.76,0,4.99.89,6.71,2.67,1.71,1.78,2.57,4.18,2.57,7.2s-.84,5.47-2.53,7.35c-1.68,1.88-4.1,2.81-7.24,2.81-5.02,0-8.24-2.12-9.64-6.37-.8-2.4-1.2-5.78-1.2-10.14s.85-7.85,2.57-10.47c1.71-2.62,4.37-3.93,7.99-3.93,2.65,0,4.75.71,6.31,2.13,1.56,1.42,2.46,3.18,2.71,5.28h-3.39c-.36-1.43-.98-2.5-1.86-3.19s-2.14-1.04-3.77-1.04Zm6.5,17.78c0-2.11-.55-3.78-1.63-5.01-1.09-1.23-2.64-1.84-4.64-1.84s-3.68.56-5.05,1.68c-1.37,1.12-2.05,2.75-2.05,4.9s.59,3.86,1.78,5.13,2.84,1.9,4.97,1.9,3.76-.6,4.91-1.8c1.14-1.2,1.72-2.86,1.72-4.97Z"/>
    <path class="cls-1" d="m708.92,180.77c.76-.87,1.75-1.57,2.98-2.09,1.23-.52,2.76-.79,4.59-.79s3.45.38,4.84,1.14c1.39.76,2.46,1.86,3.21,3.29,1.35,2.65,2.03,6.21,2.03,10.68,0,5.74-1.02,9.81-3.06,12.21-1.68,1.93-4.13,2.9-7.33,2.9-5.88,0-9.26-3.44-10.14-10.31-.17-1.43-.25-3.04-.25-4.82s.09-3.38.27-4.8c.18-1.42.51-2.79.99-4.12.48-1.33,1.1-2.42,1.86-3.29Zm12.91,4.14c-.43-1.2-1.12-2.11-2.07-2.73-.95-.62-2.08-.93-3.37-.93s-2.37.22-3.21.66c-.84.44-1.5,1.01-1.97,1.7-.47.69-.84,1.58-1.12,2.67-.28,1.09-.45,2.14-.52,3.15-.07,1.01-.1,2.2-.1,3.58s.04,2.57.1,3.58c.07,1.01.24,2.06.52,3.15.28,1.09.65,1.98,1.12,2.67.47.69,1.12,1.26,1.97,1.7.84.44,1.84.66,3,.66s2.16-.22,3-.66c.84-.44,1.5-1.01,1.99-1.7.48-.69.85-1.59,1.1-2.69.44-1.77.66-3.77.66-6s-.08-3.96-.23-5.17c-.15-1.21-.44-2.42-.87-3.62Z"/>
  </g>
</svg>